Coordinates
version=1
nRows=26
nColumns=24
inDegrees=yes

Units are S.I. units (second, meters, Newtons, ...)
Angles are in degrees.

endheader
time	pelvis_tilt	pelvis_list	pelvis_rotation	pelvis_tx	pelvis_ty	pelvis_tz	hip_flexion_r	hip_adduction_r	hip_rotation_r	knee_angle_r	ankle_angle_r	subtalar_angle_r	mtp_angle_r	hip_flexion_l	hip_adduction_l	hip_rotation_l	knee_angle_l	ankle_angle_l	subtalar_angle_l	mtp_angle_l	lumbar_extension	lumbar_bending	lumbar_rotation
      5.31000000	      0.78854503	      3.31626583	      1.62189584	      0.81830868	      1.00737921	     -0.21132757	     20.85412100	     -0.74580276	      3.79082136	     -9.51594463	     11.56115787	     -1.56154244	      0.00000000	    -18.12080508	      6.08730582	      3.06394237	    -11.00250021	     16.29427956	     -2.78646415	      0.00000000	    -13.63887603	     -3.38477577	     -8.36485833
      5.31500000	      0.78176327	      3.12141284	      1.66065807	      0.82532536	      1.00724756	     -0.21087922	     20.81416660	     -0.47871071	      3.82755184	    -10.10442640	     10.87653506	     -1.69722860	      0.00000000	    -17.92910367	      5.78851772	      2.52298652	    -12.10076926	     16.28738194	     -1.95249327	      0.00000000	    -13.61468029	     -3.14345031	     -8.26378449
      5.32000000	      0.76147936	      2.88482357	      1.71360004	      0.83236913	      1.00724856	     -0.21043714	     20.76843179	     -0.17658736	      3.85457421	    -10.62025133	     10.05152869	     -1.98544087	      0.00000000	    -17.70291736	      5.43366157	      1.97065861	    -13.22038576	     16.16885041	     -1.14094558	      0.00000000	    -13.56989950	     -2.85648397	     -8.17270685
      5.32500000	      0.73290635	      2.62959159	      1.76648502	      0.83945709	      1.00737709	     -0.20998680	     20.71733658	      0.14398044	      3.89562819	    -11.08444196	      9.16594595	     -2.42032402	      0.00000000	    -17.44493530	      5.04839928	      1.37864629	    -14.36708544	     15.92601952	     -0.33408203	      0.00000000	    -13.50532257	     -2.55492366	     -8.08476798
      5.33000000	      0.70791990	      2.35451152	      1.79209224	      0.84642982	      1.00754304	     -0.20950650	     20.67788477	      0.50050215	      4.08682637	    -11.55725094	      8.29057613	     -3.05738240	      0.00000000	    -17.13584584	      4.64022296	      0.73761308	    -15.60058736	     15.68607466	      0.48002651	      0.00000000	    -13.47504444	     -2.22324008	     -7.95513180
      5.33500000	      0.68091811	      2.07773772	      1.82156333	      0.85347012	      1.00781951	     -0.20904972	     20.63035201	      0.85807425	      4.28042929	    -12.01914680	      7.48389265	     -3.77131071	      0.00000000	    -16.80314939	      4.21875496	      0.08863224	    -16.85919270	     15.28824159	      1.23463531	      0.00000000	    -13.42676985	     -1.89308882	     -7.83057880
      5.34000000	      0.65415129	      1.81865976	      1.86294841	      0.86055618	      1.00817287	     -0.20861834	     20.57876127	      1.19516145	      4.44960553	    -12.49645098	      6.84514801	     -4.49026746	      0.00000000	    -16.43561944	      3.79878866	     -0.56885417	    -18.16662127	     14.75242550	      1.94455514	      0.00000000	    -13.36840234	     -1.58645186	     -7.70741017
      5.34500000	      0.62783776	      1.56311612	      1.85898845	      0.86756325	      1.00853457	     -0.20818342	     20.55590040	      1.54715490	      4.69510996	    -13.04606285	      6.35921702	     -5.21321620	      0.00000000	    -16.02346894	      3.38711947	     -1.25698886	    -19.53715426	     14.13979435	      2.58713108	      0.00000000	    -13.33155833	     -1.26859025	     -7.57346487
      5.35000000	      0.61122695	      1.34956565	      1.88768331	      0.87463115	      1.00897376	     -0.20777064	     20.51980501	      1.84502954	      4.80050974	    -13.62519584	      6.13631199	     -5.79306935	      0.00000000	    -15.57991389	      2.98850746	     -1.94241758	    -20.96164509	     13.35271260	      3.18646695	      0.00000000	    -13.28905867	     -1.01042200	     -7.44810218
      5.35500000	      0.57762487	      1.13370366	      1.87640012	      0.88164887	      1.00939618	     -0.20735276	     20.51972950	      2.15795979	      4.94581355	    -14.26171683	      6.07792808	     -6.27273445	      0.00000000	    -15.06644325	      2.58516572	     -2.66704955	    -22.45714706	     12.46655831	      3.72447777	      0.00000000	    -13.24038000	     -0.73789694	     -7.32189247
      5.36000000	      0.54729301	      0.94710524	      1.86554271	      0.88866649	      1.00984938	     -0.20693003	     20.51775506	      2.43899698	      5.01073262	    -14.92417501	      6.22447611	     -6.61047257	      0.00000000	    -14.50675608	      2.18953236	     -3.40783858	    -24.01258139	     11.41630218	      4.19762622	      0.00000000	    -13.19016762	     -0.50078164	     -7.19473387
      5.36500000	      0.49209522	      0.76872144	      1.83812370	      0.89566721	      1.01028124	     -0.20648484	     20.54108699	      2.71242954	      5.04239416	    -15.60149665	      6.51764972	     -6.81412700	      0.00000000	    -13.86876763	      1.78330478	     -4.18151476	    -25.63087861	     10.22370009	      4.61087278	      0.00000000	    -13.11041402	     -0.27816561	     -7.06410730
      5.37000000	      0.44262991	      0.60344260	      1.80499469	      0.90262693	      1.01074466	     -0.20601114	     20.55370634	      2.96787035	      4.98661475	    -16.27561659	      6.91804626	     -6.89518736	      0.00000000	    -13.19036539	      1.36704648	     -4.96123071	    -27.29211433	      8.85864115	      4.94277418	      0.00000000	    -13.04077975	     -0.07670671	     -6.92481576
      5.37500000	      0.23580442	      0.51892892	      1.76061445	      0.90946019	      1.01099632	     -0.20549486	     20.74295770	      3.13547523	      4.91531234	    -16.96824753	      7.42227381	     -6.88079419	      0.00000000	    -12.28117383	      1.01811345	     -5.72691068	    -29.02123092	      7.32454637	      5.18131453	      0.00000000	    -12.79727504	      0.01598353	     -6.80037774
      5.38000000	      0.26289022	      0.31077170	      1.74319565	      0.91638630	      1.01159800	     -0.20503539	     20.61870430	      3.41366589	      4.74652966	    -17.54392736	      7.90002330	     -6.83995440	      0.00000000	    -11.60947794	      0.50837493	     -6.47863194	    -30.72697711	      5.61924449	      5.29222377	      0.00000000	    -12.81687153	      0.26890782	     -6.66257827
      5.38500000	      0.09574751	      0.19615503	      1.66773984	      0.92316396	      1.01189902	     -0.20447580	     20.71928689	      3.59985460	      4.60590874	    -18.15316141	      8.50396139	     -6.62789228	      0.00000000	    -10.68225403	      0.08332099	     -7.26145185	    -32.47963206	      3.78876913	      5.40033722	      0.00000000	    -12.61969450	      0.39741128	     -6.52101020
      5.39000000	      0.11587053	     -0.00401019	      1.67540722	      0.92991566	      1.01252051	     -0.20401079	     20.54477550	      3.85255384	      4.39563224	    -18.60157999	      8.92927743	     -6.61820283	      0.00000000	     -9.92843854	     -0.46001871	     -7.92320361	    -34.20819754	      1.76790228	      5.30720644	      0.00000000	    -12.65617001	      0.64617492	     -6.39661297
      5.39500000	     -0.14389243	     -0.08746945	      1.61640961	      0.93647583	      1.01270674	     -0.20344298	     20.70894921	      3.98034643	      4.16507369	    -19.12589595	      9.54370282	     -6.29710659	      0.00000000	     -8.83244034	     -0.87616375	     -8.57548445	    -35.97111348	     -0.35765819	      5.16021615	      0.00000000	    -12.37364614	      0.72458604	     -6.26353136
      5.40000000	     -0.10904047	     -0.33418882	      1.63824556	      0.94318761	      1.01332025	     -0.20289955	     20.43939340	      4.27408313	      3.95867168	    -19.42033620	      9.95421957	     -6.27576658	      0.00000000	     -8.05426061	     -1.50707361	     -9.16002199	    -37.68042350	     -2.55162555	      4.94332903	      0.00000000	    -12.41902871	      1.00802680	     -6.14599582
      5.40500000	     -0.34413340	     -0.43997525	      1.63690143	      0.94968860	      1.01356647	     -0.20242363	     20.49508659	      4.39544023	      3.68904366	    -19.78549371	     10.52928932	     -5.95551871	      0.00000000	     -6.95300900	     -1.95465969	     -9.62737957	    -39.38182001	     -4.88061725	      4.55062402	      0.00000000	    -12.16110007	      1.11904373	     -6.06325722
      5.41000000	     -0.48373443	     -0.64271244	      1.67972711	      0.95611910	      1.01390727	     -0.20192596	     20.40155488	      4.61534710	      3.41673902	    -20.03993114	     10.97897525	     -5.78356796	      0.00000000	     -5.92125313	     -2.52744995	    -10.03207604	    -41.09723943	     -7.15331533	      4.13113114	      0.00000000	    -12.03201800	      1.34118802	     -5.97181482
      5.41500000	     -0.48059653	     -0.92462442	      1.71640133	      0.96264734	      1.01444602	     -0.20142289	     20.08465149	      4.92737879	      3.21026539	    -20.16173845	     11.36345975	     -5.67581236	      0.00000000	     -5.05458815	     -3.18608963	    -10.40671770	    -42.75635591	     -9.40351244	      3.67624987	      0.00000000	    -12.05149534	      1.65803660	     -5.82097420
      5.42000000	     -0.74784174	     -1.06106433	      1.80842833	      0.96889257	      1.01459956	     -0.20107944	     20.10674550	      5.04022374	      2.85488927	    -20.36928521	     11.89626276	     -5.37020446	      0.00000000	     -3.83608349	     -3.65725861	    -10.62330174	    -44.43673951	    -11.68897295	      3.03809144	      0.00000000	    -11.77950142	      1.80566964	     -5.80975235
      5.42500000	     -0.89463255	     -1.27637981	      1.90954816	      0.97523131	      1.01494156	     -0.20075723	     19.93069331	      5.24547297	      2.58909996	    -20.44527309	     12.31693336	     -5.19701447	      0.00000000	     -2.75251065	     -4.20331826	    -10.79069644	    -46.06430479	    -13.91981576	      2.35939401	      0.00000000	    -11.62947064	      2.05019625	     -5.74226179
      5.43000000	     -1.03163143	     -1.48730683	      2.02933226	      0.98145411	      1.01528437	     -0.20048855	     19.73557720	      5.44033956	      2.31856784	    -20.49122495	     12.71775577	     -5.03933592	      0.00000000	     -1.65204039	     -4.73059715	    -10.90552871	    -47.67780402	    -16.08415394	      1.58653105	      0.00000000	    -11.50813249	      2.28990383	     -5.68619568
      5.43500000	     -1.10063163	     -1.70192167	      2.16732848	      0.98765026	      1.01573732	     -0.20023518	     19.43682254	      5.64686186	      2.09014338	    -20.46981054	     13.05520053	     -4.98727547	      0.00000000	     -0.61465099	     -5.25155010	    -10.98082910	    -49.24426783	    -18.19251566	      0.72965079	      0.00000000	    -11.46950865	      2.52776281	     -5.65130012
